<mxfile host="app.diagrams.net" modified="2022-12-28T06:57:46.107Z" agent="5.0 (Windows NT 10.0; Win64; x64) AppleWebKit/537.36 (KHTML, like Gecko) Chrome/108.0.0.0 Safari/537.36 Edg/108.0.1462.54" etag="jF9ynIenQQAv0ADUBM63" version="20.7.4" type="github">
  <diagram id="eXz5IhRbB3XG7EKvIImH" name="第 1 页">
    <mxGraphModel dx="793" dy="455" grid="1" gridSize="10" guides="1" tooltips="1" connect="1" arrows="1" fold="1" page="1" pageScale="1" pageWidth="827" pageHeight="1169" math="0" shadow="0">
      <root>
        <mxCell id="0" />
        <mxCell id="1" parent="0" />
        <mxCell id="L2q6RVDt1Gr3lTyGAw2G-1" value="" style="verticalLabelPosition=bottom;shadow=0;dashed=0;align=center;html=1;verticalAlign=top;shape=mxgraph.electrical.transistors.nmos;pointerEvents=1;" vertex="1" parent="1">
          <mxGeometry x="110" y="630" width="60" height="100" as="geometry" />
        </mxCell>
        <mxCell id="L2q6RVDt1Gr3lTyGAw2G-2" value="" style="pointerEvents=1;verticalLabelPosition=bottom;shadow=0;dashed=0;align=center;html=1;verticalAlign=top;shape=mxgraph.electrical.inductors.iron_core;" vertex="1" parent="1">
          <mxGeometry x="170" y="726" width="64" height="4" as="geometry" />
        </mxCell>
        <mxCell id="L2q6RVDt1Gr3lTyGAw2G-3" value="" style="pointerEvents=1;verticalLabelPosition=bottom;shadow=0;dashed=0;align=center;html=1;verticalAlign=top;shape=mxgraph.electrical.inductors.inductor_5;" vertex="1" parent="1">
          <mxGeometry x="234" y="719" width="100" height="14" as="geometry" />
        </mxCell>
      </root>
    </mxGraphModel>
  </diagram>
</mxfile>
